<svg width="32" height="38" viewBox="0 0 32 38" fill="none" xmlns="http://www.w3.org/2000/svg">
<path d="M28.3914 31.9766C27.6329 31.9766 26.9832 32.2409 26.4604 32.7625C25.9375 33.2842 25.6725 33.9323 25.6725 34.6889C25.6725 35.4456 25.9375 36.0948 26.4604 36.6148C26.9832 37.1348 27.6318 37.4013 28.3914 37.4013C29.151 37.4013 29.7996 37.1369 30.3224 36.6153C30.8453 36.0937 31.1109 35.4456 31.1109 34.6889C31.1109 33.9323 30.8453 33.2858 30.3224 32.7625C29.7996 32.2393 29.1488 31.9766 28.3914 31.9766Z" fill="black"/>
<path d="M31.1109 9.18892C31.1109 8.43389 30.8453 7.78579 30.3224 7.26253C29.7996 6.73928 29.1488 6.47656 28.3919 6.47656C27.6351 6.47656 26.9838 6.74091 26.4604 7.26308C25.9369 7.78525 25.6725 8.43281 25.6725 9.18892V28.3144C25.6725 29.0743 25.9375 29.7197 26.4604 30.2403C26.9832 30.7608 27.6324 31.0268 28.3914 31.0268C29.1504 31.0268 29.7996 30.7619 30.3224 30.2408C30.8453 29.7197 31.1109 29.0705 31.1109 28.3144V9.18892Z" fill="black"/>
<path d="M22.0015 19.2266H9.22037C8.46189 19.2266 7.81222 19.4914 7.28933 20.0131C6.76645 20.5347 6.50146 21.1828 6.50146 21.9395C6.50146 22.6961 6.76645 23.3453 7.28933 23.8653C7.81222 24.3853 8.4608 24.6518 9.22037 24.6518H22.0015C22.76 24.6518 23.4096 24.3875 23.932 23.8659C24.4543 23.3442 24.7204 22.6961 24.7204 21.9395C24.7204 21.1828 24.4554 20.5358 23.932 20.0131C23.4085 19.4904 22.7589 19.2266 22.0015 19.2266Z" fill="black"/>
<path d="M22.0015 0.101562H9.22037C8.46189 0.101562 7.81222 0.366448 7.28933 0.888077C6.76645 1.40971 6.50146 2.05564 6.50146 2.81555C6.50146 3.57547 6.76645 4.2214 7.28933 4.74194C7.81222 5.26249 8.4608 5.52954 9.22037 5.52954H22.0015C22.76 5.52954 23.4096 5.26466 23.932 4.74303C24.4543 4.2214 24.7204 3.57059 24.7204 2.81555C24.7204 2.06052 24.4554 1.41242 23.932 0.889163C23.4085 0.365905 22.7589 0.101562 22.0015 0.101562Z" fill="black"/>
<path d="M4.76079 13.6375C4.23735 13.1159 3.58769 12.8516 2.83138 12.8516C2.07507 12.8516 1.42377 13.1159 0.900884 13.6375C0.377997 14.1592 0.11084 14.8073 0.11084 15.5639V34.6889C0.11084 35.4488 0.376364 36.0947 0.898708 36.6147C1.42105 37.1347 2.06963 37.4012 2.83138 37.4012C3.59313 37.4012 4.23953 37.1369 4.76296 36.6153C5.28639 36.0936 5.55192 35.4455 5.55192 34.6889V15.5639C5.55192 14.8111 5.28422 14.1597 4.76079 13.6375Z" fill="black"/>
<path d="M2.83138 6.47656C2.07344 6.47656 1.42377 6.74091 0.900884 7.26308C0.377997 7.78525 0.11084 8.43281 0.11084 9.18892C0.11084 9.94504 0.376364 10.5953 0.898708 11.1153C1.42105 11.6353 2.06963 11.9018 2.83138 11.9018C3.59313 11.9018 4.23953 11.6375 4.76296 11.1153C5.28639 10.5931 5.55192 9.94558 5.55192 9.18892C5.55192 8.43226 5.28694 7.78579 4.76351 7.26253C4.24007 6.73928 3.58714 6.47656 2.83138 6.47656Z" fill="black"/>
</svg>
