<?xml version="1.0" encoding="utf-8"?>
<svg xmlns="http://www.w3.org/2000/svg" viewBox="0 0 400 120" width="400" height="120">
  <rect width="400" height="120" fill="#000000"/>
  <g transform="translate(-28.3448,-23.7931) scale(0.310345)">
    <path fill="#FFFFFF" d="M260.4500 387.3000 c0.75 -0.40 1.80 -1.40 2.35 -2.15 0.90 -1.35 0.90 -3.25 0.80 -48.85 -0.10 -26.10 0 -48 0.15 -48.75 0.25 -1.15 0.85 -1.45 4.65 -2.70 9.80 -3.10 20.05 -10.35 26.30 -18.70 11.50 -15.25 13 -32 4.50 -49.40 -2.95 -6.15 -8.15 -13.05 -11.55 -15.45 -2.15 -1.45 -2.15 -1.50 -3.90 -0.65 -2 0.95 -3 2.70 -2.55 4.50 0.15 0.70 1.85 2.95 3.80 5.05 7.05 7.85 10.45 16.80 10.50 27.90 0.05 16.10 -8.55 29.30 -23.65 36.40 -2.50 1.20 -5 2 -6.05 2 -1.60 0 -1.80 -0.15 -1.90 -1.35 -0.05 -0.80 -0.10 -34.15 -0.15 -74.15 l0 -72.75 -1.20 -1.65 c-2.20 -3.10 -4.95 -3.05 -7.25 0.05 l-1.05 1.40 -0.15 127.25 c-0.10 140.10 -0.35 129.65 3 131.70 1.95 1.20 1.65 1.15 3.35 0.30z M224.0500 310.0500 c2.30 -2.35 2 -3.60 -1.90 -7.20 -11.10 -10.15 -16.90 -18.45 -21.30 -30.35 -2.75 -7.45 -3.55 -12.45 -3.55 -22.25 0 -9.25 0.60 -14.35 2.55 -20.50 1.80 -5.75 6.20 -14.05 9.60 -18.10 4.05 -4.80 4.25 -5.30 3.30 -7.15 -0.45 -0.85 -1.55 -1.90 -2.50 -2.35 -1.55 -0.75 -1.75 -0.75 -3.45 0.30 -2.30 1.45 -7.65 8.60 -10.50 14.05 -11 21.10 -11.45 42.30 -1.35 63.75 5.65 11.90 14.75 23.60 23.25 29.85 2.50 1.80 4 1.80 5.85 -0.05z M289.8500 307.5000 c22.95 -11.60 39 -32.95 43.20 -57.40 4.35 -25.60 -6.60 -53.85 -27.70 -71.55 -4.90 -4.10 -5.95 -4.65 -7.60 -4.25 -1.50 0.35 -3.75 2.90 -3.75 4.20 0 1.10 1.95 3.15 7.35 7.55 11.35 9.40 19.15 22.95 22.20 38.55 1.25 6.40 1.35 20.75 0.20 26.95 -2.40 12.80 -8.30 24.25 -17.40 33.80 -6.35 6.60 -11.80 10.60 -20.25 14.70 -7.50 3.70 -9.10 4.90 -9.10 6.85 0 1.70 2.60 4.10 4.45 4.10 0.90 0 4.35 -1.45 8.40 -3.50z M184.9000 306.7500 c2.70 -2.25 2.65 -2.30 -3 -12.05 -5.25 -9.10 -9.20 -20.35 -11 -31.45 -1 -6.20 -0.85 -23.30 0.30 -29.95 2.90 -17.40 9.70 -31.25 21.95 -44.65 2.05 -2.25 3.90 -4.55 4.10 -5.15 0.40 -1.30 -0.80 -3.25 -2.65 -4.20 -2.15 -1.10 -4 0.05 -9 5.70 -12.55 14 -19.90 29 -23.45 47.75 -1.05 5.60 -1.45 21 -0.70 27.10 1.85 14.85 7.25 29.95 15.15 42.30 3.85 5.95 5.55 6.90 8.30 4.60z M152.7000 301.7500 c0.70 -0.65 1.30 -1.70 1.30 -2.35 0 -0.65 -0.85 -3.15 -1.95 -5.65 -4.15 -9.65 -7.40 -21.80 -8.60 -32.25 -0.85 -7.55 -0.30 -26.65 0.95 -33.50 2.70 -14.40 6.85 -25.80 13.60 -37.20 3.45 -5.90 3.60 -6.35 2.50 -8.20 -1 -1.60 -2.40 -2.60 -3.70 -2.60 -3.40 0 -12.10 15.75 -17.10 30.90 -7.20 21.80 -8 43.80 -2.45 65.90 2.75 10.95 7.95 23.70 10.30 25.35 1.65 1.20 3.60 1.05 5.15 -0.40z M234.8000 284.6000 c1.50 -1.20 2.30 -2.95 1.95 -4.10 -0.15 -0.55 -1.65 -2.60 -3.30 -4.60 -3.50 -4.30 -7 -10.85 -8.25 -15.40 -0.65 -2.40 -0.90 -5.05 -0.90 -10 0.05 -7.90 0.75 -11.30 3.75 -17.15 1.05 -2.15 1.95 -4.20 1.95 -4.55 0 -0.40 -0.65 -1.40 -1.45 -2.25 -4.10 -4.40 -8.65 0.65 -12.15 13.45 -1.65 6 -1.60 15.50 0 21.25 3.10 10.65 12.40 24.30 16.60 24.25 0.40 0 1.25 -0.40 1.80 -0.90z M351.5500 284.1500 c1.95 -1.65 4.25 -6.50 7 -14.75 6.70 -19.95 7.05 -39.25 1.15 -58.80 -1.90 -6.25 -3.45 -8.90 -5.55 -9.40 -1.65 -0.45 -3.60 0.60 -4.60 2.35 -0.65 1.20 -0.55 1.85 1.10 7.50 2.40 8.05 3.30 13.85 3.65 23.70 0.60 15.55 -1.45 27.30 -7.15 40.85 -2.10 4.95 -2.25 5.50 -1.65 6.90 0.60 1.45 2.50 2.95 3.85 3 0.30 0 1.30 -0.60 2.20 -1.35z"/>
  </g>
  <line x1="100" y1="18" x2="100" y2="102" stroke="#FFFFFF" stroke-width="1"/>
  <text
    x="118"
    y="88"
    font-family="Georgia, 'Playfair Display', 'Times New Roman', serif"
    font-weight="700"
    font-size="72"
    fill="#FFFFFF"
    letter-spacing="-1">tapara</text>
</svg>